<svg xmlns="http://www.w3.org/2000/svg" width="1200" height="675" viewBox="0 0 1200 675">
  <defs>
    <linearGradient id="g" x1="0" y1="0" x2="1" y2="1">
      <stop offset="0" stop-color="#fbfbfb"/>
      <stop offset="1" stop-color="#d9eadA"/>
    </linearGradient>
  </defs>
  <rect width="1200" height="675" fill="url(#g)"/>
  <g fill="none" stroke="#18" stroke-opacity="0.35" stroke-width="14" stroke-linecap="round" stroke-linejoin="round">
    <path d="M270 410c40-70 90-120 165-135 85-18 245-18 330 0 75 15 125 65 165 135"/>
    <path d="M250 410h700c35 0 65 28 65 63v40c0 20-16 36-36 36h-75"/>
    <path d="M250 410c-35 0-65 28-65 63v40c0 20 16 36 36 36h75"/>
    <path d="M410 305c75-10 305-10 380 0"/>
    <path d="M520 305l60-55h150l60 55"/>
    <circle cx="360" cy="560" r="55"/>
    <circle cx="840" cy="560" r="55"/>
  </g>
  <text x="50%" y="78%" text-anchor="middle" font-family="Heebo, Arial" font-size="42" fill="#181818" opacity="0.55">אין תמונה זמינה</text>
</svg>
